<svg width="26" height="26" viewBox="0 0 26 26" fill="none" xmlns="http://www.w3.org/2000/svg">
<g clip-path="url(#clip0_225_808)">
<path d="M9.28573 22.7314L0.928589 25.0714L3.26859 16.7143L18.5714 1.48577C18.7443 1.30888 18.951 1.16834 19.1789 1.07238C19.407 0.97643 19.6519 0.927002 19.8993 0.927002C20.1467 0.927002 20.3916 0.97643 20.6197 1.07238C20.8476 1.16834 21.0543 1.30888 21.2272 1.48577L24.5143 4.79148C24.6883 4.96412 24.8265 5.16954 24.9208 5.39583C25.0152 5.62215 25.0636 5.86489 25.0636 6.11005C25.0636 6.35521 25.0152 6.59796 24.9208 6.82427C24.8265 7.05058 24.6883 7.25599 24.5143 7.42862L9.28573 22.7314Z" stroke="#A3A790" stroke-linecap="round" stroke-linejoin="round"/>
</g>
<defs>
<clipPath id="clip0_225_808">
<rect width="26" height="26" fill="white"/>
</clipPath>
</defs>
</svg>
