<svg width="68" height="69" viewBox="0 0 68 69" fill="none" xmlns="http://www.w3.org/2000/svg">
<path d="M34.2502 39.3214C40.9072 39.3214 46.3038 33.9248 46.3038 27.2678C46.3038 20.6108 40.9072 15.2143 34.2502 15.2143C27.5932 15.2143 22.1967 20.6108 22.1967 27.2678C22.1967 33.9248 27.5932 39.3214 34.2502 39.3214Z" stroke="#A3A790" stroke-width="0.75" stroke-linecap="round" stroke-linejoin="round"/>
<path d="M13.6627 58.125C15.8142 54.5933 18.838 51.6744 22.4435 49.6494C26.049 47.6238 30.1148 46.56 34.2502 46.56C38.3855 46.56 42.4514 47.6238 46.0568 49.6494C49.6624 51.6744 52.6859 54.5933 54.8378 58.125" stroke="#A3A790" stroke-width="0.75" stroke-linecap="round" stroke-linejoin="round"/>
<path d="M34.2501 65.8392C51.5585 65.8392 65.5893 51.8084 65.5893 34.5C65.5893 17.1918 51.5585 3.16068 34.2501 3.16068C16.9418 3.16068 2.91077 17.1918 2.91077 34.5C2.91077 51.8084 16.9418 65.8392 34.2501 65.8392Z" stroke="#A3A790" stroke-width="0.75" stroke-linecap="round" stroke-linejoin="round"/>
</svg>
